<?xml version="1.0" encoding="utf-8"?>
<!-- Generator: Adobe Illustrator 28.0.0, SVG Export Plug-In . SVG Version: 6.00 Build 0)  -->
<svg version="1.1" id="Capa_1" xmlns="http://www.w3.org/2000/svg" xmlns:xlink="http://www.w3.org/1999/xlink" x="0px" y="0px"
	 viewBox="0 0 144 98.32" style="enable-background:new 0 0 144 98.32;" xml:space="preserve">
<g>
	<path d="M5.3,73.84c0.14-5.23,1.07-10.31,2.66-15.23c2.89-8.97,5.95-17.88,8.97-26.8c1.27-3.77,2.68-7.49,3.91-11.27
		c0.6-1.83,1.7-3.07,3.44-3.75c2.19-0.85,4.37-1.75,6.61-2.43c3.95-1.21,7.94-2.29,11.92-3.41c2.33-0.65,4.18-0.01,5.75,1.9
		c2.61,3.18,5.37,6.25,8.06,9.37c0.35,0.4,0.73,0.78,1.1,1.17c0.99,1.05,2.19,1.54,3.65,1.53c7.36-0.02,14.72-0.02,22.08,0
		c1.52,0,2.78-0.5,3.77-1.63c2.4-2.73,4.78-5.48,7.17-8.23c0.65-0.75,1.36-1.45,1.95-2.24c1.46-1.96,3.38-2.52,5.67-1.88
		c3.8,1.05,7.62,2.07,11.39,3.22c2.29,0.7,4.52,1.61,6.77,2.45c1.97,0.73,3.22,2.06,3.91,4.12c4.06,12.07,8.27,24.08,12.3,36.16
		c1.59,4.74,2.69,9.63,2.91,14.66c0.17,3.94,0.15,7.88-1.36,11.61c-2.09,5.17-5.79,8.68-11.01,10.65c-1.18,0.45-2.13,0.35-3.05-0.55
		c-1.5-1.45-3.08-2.81-4.59-4.25c-4.59-4.37-9.15-8.78-13.75-13.15c-3.36-3.18-7.27-4.83-12.01-4.8
		c-14.37,0.1-28.74,0.03-43.11,0.02c-4.31,0-7.88,1.78-10.93,4.66c-5.37,5.07-10.68,10.21-16.02,15.3
		c-0.89,0.85-1.85,1.62-2.76,2.45c-0.7,0.64-1.43,0.77-2.35,0.44c-6.45-2.28-10.58-6.72-12.19-13.35C5.61,78.4,5.57,76.09,5.3,73.84
		z M52.65,55.98c0,1.6-0.01,3.09,0,4.58c0.01,1.1,0.58,1.67,1.69,1.68c0.96,0.01,1.93,0.01,2.89,0c0.96-0.02,1.55-0.56,1.63-1.51
		c0.04-0.5,0.02-1.01,0.02-1.52c0-1.06,0-2.11,0-3.23c1.62,0,3.11,0.01,4.6,0c0.94-0.01,1.55-0.5,1.61-1.43
		c0.07-1.09,0.07-2.19,0.01-3.28c-0.05-0.95-0.67-1.48-1.64-1.51c-1.07-0.03-2.14-0.01-3.21-0.01c-0.44,0-0.88,0-1.36,0
		c0-1.55,0.01-2.97,0-4.38c-0.01-1.28-0.6-1.87-1.86-1.89c-0.8-0.01-1.6,0-2.41,0c-1.41,0.01-1.95,0.54-1.95,1.93
		c0,1.41,0,2.82,0,4.29c-0.34,0.02-0.6,0.04-0.86,0.04c-1.18,0.01-2.35-0.01-3.53,0.01c-1.31,0.02-1.86,0.58-1.87,1.86
		c-0.01,0.86-0.01,1.71,0,2.57c0.01,1.26,0.55,1.81,1.81,1.81C49.64,55.99,51.08,55.98,52.65,55.98z M78.68,52.84
		c-0.02,5.73,4.65,10.46,10.35,10.48c5.75,0.02,10.47-4.68,10.48-10.44c0.01-5.69-4.65-10.39-10.32-10.41
		C83.37,42.45,78.7,47.06,78.68,52.84z M28.7,31.47c-0.01,5.79,4.58,10.4,10.36,10.41c5.77,0.01,10.4-4.59,10.41-10.36
		c0.01-5.78-4.58-10.44-10.32-10.47C33.35,21.02,28.7,25.66,28.7,31.47z M112.56,31.52c0.01,2.32,1.88,4.14,4.22,4.12
		c2.24-0.02,4.13-1.95,4.09-4.19c-0.03-2.26-1.91-4.12-4.17-4.13C114.4,27.3,112.55,29.19,112.56,31.52z M103.71,40.33
		c-0.01,2.32,1.87,4.22,4.15,4.2c2.26-0.02,4.11-1.88,4.12-4.15c0.01-2.34-1.81-4.17-4.15-4.17
		C105.54,36.21,103.71,38.03,103.71,40.33z M107.82,26.76c2.33,0.01,4.17-1.84,4.17-4.17c-0.01-2.28-1.85-4.15-4.12-4.16
		c-2.29-0.02-4.17,1.88-4.16,4.19C103.71,24.91,105.54,26.75,107.82,26.76z M94.85,31.51c0.01,2.3,1.82,4.11,4.12,4.12
		c2.32,0.01,4.16-1.84,4.15-4.18c-0.01-2.28-1.86-4.14-4.12-4.14C96.7,27.3,94.84,29.18,94.85,31.51z"/>
	<path d="M25.79,13.94c0.51-2.03,1.15-3.68,3.16-4.63c4.92-2.32,10.06-3.85,15.42-4.7c0.45-0.07,0.91-0.07,1.35-0.18
		c1.8-0.45,3.37,0.12,4.87,1.05c0.91,0.56,1.87,1.05,2.72,1.68c0.91,0.68,1.86,0.87,2.97,0.87c11.08-0.03,22.15-0.01,33.23-0.03
		c0.42,0,0.88-0.17,1.25-0.38c1.11-0.64,2.19-1.33,3.27-2.02c1.63-1.04,3.33-1.48,5.32-1.17c5.79,0.89,11.4,2.35,16.65,5
		c1.87,0.95,2.69,2.21,2.96,4.46c-2.26-0.77-4.48-1.55-6.72-2.29c-3.6-1.18-7.22-2.28-10.99-2.85c-2.5-0.38-4.45,0.45-6.06,2.3
		c-2.18,2.5-4.35,5.01-6.53,7.51c-1,1.15-2.02,2.29-3.03,3.43c-0.57,0.64-1.29,0.9-2.14,0.89c-7.38-0.01-14.77-0.01-22.15,0
		c-0.93,0-1.66-0.34-2.25-1.02c-2.3-2.64-4.6-5.28-6.9-7.92c-0.77-0.89-1.58-1.75-2.32-2.66C48,8.97,45.65,8.29,42.78,8.84
		c-5.43,1.04-10.61,2.87-15.8,4.68C26.63,13.63,26.28,13.76,25.79,13.94z M77.6,15.33c0.01-2.89-2.29-5.23-5.15-5.25
		c-2.85-0.02-5.19,2.31-5.21,5.19c-0.02,2.88,2.28,5.22,5.15,5.23C75.27,20.51,77.59,18.21,77.6,15.33z"/>
	<path d="M89.1,60.21c-4.07-0.03-7.32-3.33-7.28-7.39c0.04-4.06,3.35-7.31,7.41-7.27c4.02,0.03,7.3,3.4,7.26,7.44
		C96.44,56.99,93.12,60.24,89.1,60.21z M89.14,58.08c2.87,0,5.22-2.32,5.23-5.17c0.02-2.86-2.4-5.27-5.26-5.25
		c-2.85,0.02-5.17,2.38-5.16,5.24C83.96,55.79,86.26,58.08,89.14,58.08z"/>
	<path d="M46.27,31.47c0,4.08-3.26,7.32-7.34,7.32c-4.04,0-7.32-3.31-7.3-7.37c0.02-4.05,3.31-7.29,7.4-7.26
		C43.07,24.17,46.27,27.42,46.27,31.47z M39.01,26.26c-2.87-0.01-5.23,2.28-5.27,5.14c-0.04,2.86,2.35,5.28,5.22,5.29
		c2.85,0,5.2-2.34,5.21-5.2C44.17,28.6,41.88,26.27,39.01,26.26z"/>
</g>
</svg>
