<?xml version="1.0" encoding="utf-8"?>
<!-- Generator: Adobe Illustrator 28.0.0, SVG Export Plug-In . SVG Version: 6.00 Build 0)  -->
<svg version="1.1" id="Capa_1" xmlns="http://www.w3.org/2000/svg" xmlns:xlink="http://www.w3.org/1999/xlink" x="0px" y="0px"
	 viewBox="0 0 321.29 98.32" style="enable-background:new 0 0 321.29 98.32;" xml:space="preserve">
<style type="text/css">
	.st0{fill:#DCDEDF;}
	.st1{fill:#DEDEDE;}
</style>
<g>
	<path class="st0" d="M188.75,20.72v17.92c-1.79,1.79-4.01,3.22-6.66,4.28c-2.65,1.06-5.64,1.6-8.96,1.6
		c-1.94,0-3.82-0.24-5.63-0.73c-1.81-0.48-3.54-1.26-5.18-2.32c-1.64-1.06-3.08-2.37-4.31-3.92c-1.23-1.55-2.2-3.46-2.91-5.74
		c-0.71-2.28-1.06-4.8-1.06-7.56c0-3.28,0.52-6.23,1.57-8.85c1.04-2.61,2.47-4.76,4.28-6.44c1.81-1.68,3.89-2.96,6.24-3.84
		c2.35-0.88,4.87-1.32,7.56-1.32c5.6,0,10.34,1.49,14.22,4.48l-4.03,6.05c-2.88-1.98-6.14-2.97-9.8-2.97c-3.4,0-6.13,1.08-8.2,3.25
		c-2.07,2.17-3.11,5.26-3.11,9.3c0,4.14,1,7.34,3,9.58c2,2.24,4.6,3.36,7.81,3.36c3.02,0,5.47-0.78,7.34-2.35v-7.17h-9.63v-6.61
		H188.75z"/>
	<path class="st0" d="M220.56,36.07h-15.29l-2.63,7.62h-8.57l14.67-39.2h8.29l15.12,39.2h-8.9L220.56,36.07z M218.32,29.51
		l-5.49-15.68l-5.32,15.68H218.32z"/>
	<path class="st0" d="M277.68,4.48v39.2h-7.9V19.66l-10.7,22.9h-4.65l-10.53-22.74v23.86h-7.9V4.48h7.84l13.22,28.28l12.71-28.28
		H277.68z"/>
	<path class="st0" d="M311.56,11.48h-18.2v8.85h15.68v7.06h-15.68v9.18h18.2v7.11h-26.43V4.48h26.43V11.48z"/>
	<path class="st0" d="M185.05,56.69l-21,28.56h22.18v7.43h-32.8v-5.6l20.47-28.26h-19.47v-7.43h30.62V56.69z"/>
	<path class="st0" d="M204.96,51.94c2.42-0.85,4.97-1.27,7.64-1.27s5.21,0.42,7.61,1.27c2.4,0.85,4.59,2.09,6.58,3.75
		c1.99,1.65,3.56,3.87,4.72,6.64c1.16,2.77,1.74,5.93,1.74,9.47c0,2.91-0.38,5.58-1.15,7.99c-0.77,2.42-1.81,4.48-3.13,6.17
		c-1.32,1.69-2.86,3.12-4.63,4.28s-3.64,2.02-5.61,2.57c-1.97,0.55-4.01,0.83-6.14,0.83c-2.67,0-5.22-0.45-7.64-1.36
		s-4.61-2.21-6.58-3.92c-1.97-1.71-3.53-3.99-4.69-6.84c-1.16-2.85-1.74-6.09-1.74-9.71c0-3.54,0.58-6.7,1.74-9.47
		c1.16-2.77,2.72-4.99,4.69-6.64C200.35,54.04,202.54,52.79,204.96,51.94z M212.6,58.64c-3.42,0-6.19,1.13-8.29,3.39
		c-2.1,2.26-3.16,5.56-3.16,9.88c0,4.33,1.05,7.7,3.16,10.12c2.1,2.42,4.83,3.63,8.17,3.63c3.38,0,6.15-1.2,8.29-3.6
		c2.14-2.4,3.22-5.78,3.22-10.15c0-4.33-1.05-7.62-3.16-9.88C218.73,59.77,215.99,58.64,212.6,58.64z"/>
	<path class="st0" d="M275.85,92.68h-7.32l-19.59-26.25v26.25h-8.67v-41.3h7.38l19.41,26.49V51.38h8.79V92.68z"/>
	<path class="st0" d="M311.55,58.76h-19.17v9.32h16.52v7.43h-16.52v9.68h19.17v7.49H283.7v-41.3h27.85V58.76z"/>
</g>
<g>
	<path class="st1" d="M5.03,73.1c0.14-5.23,1.07-10.31,2.66-15.23c2.89-8.97,5.95-17.88,8.97-26.8c1.27-3.77,2.68-7.49,3.91-11.27
		c0.6-1.83,1.7-3.07,3.44-3.75c2.19-0.85,4.37-1.75,6.61-2.43c3.95-1.21,7.94-2.29,11.92-3.41c2.33-0.65,4.18-0.01,5.75,1.9
		c2.61,3.18,5.37,6.25,8.06,9.37c0.35,0.4,0.73,0.78,1.1,1.17c0.99,1.05,2.19,1.54,3.65,1.53c7.36-0.02,14.72-0.02,22.08,0
		c1.52,0,2.78-0.5,3.77-1.63c2.4-2.73,4.78-5.48,7.17-8.23c0.65-0.75,1.36-1.45,1.95-2.24c1.46-1.96,3.38-2.52,5.67-1.88
		c3.8,1.05,7.62,2.07,11.39,3.22c2.29,0.7,4.52,1.61,6.77,2.45c1.97,0.73,3.22,2.06,3.91,4.12c4.06,12.07,8.27,24.08,12.3,36.16
		c1.59,4.74,2.69,9.63,2.91,14.66c0.17,3.94,0.15,7.88-1.36,11.61c-2.09,5.17-5.79,8.68-11.01,10.65c-1.18,0.45-2.13,0.35-3.05-0.55
		c-1.5-1.45-3.08-2.81-4.59-4.25c-4.59-4.37-9.15-8.78-13.75-13.15c-3.36-3.18-7.27-4.83-12.01-4.8
		c-14.37,0.1-28.74,0.03-43.11,0.02c-4.31,0-7.88,1.78-10.93,4.66c-5.37,5.07-10.68,10.21-16.02,15.3
		c-0.89,0.85-1.85,1.62-2.76,2.45c-0.7,0.64-1.43,0.77-2.35,0.44c-6.45-2.28-10.58-6.72-12.19-13.35C5.34,77.65,5.3,75.35,5.03,73.1
		z M52.38,55.24c0,1.6-0.01,3.09,0,4.58c0.01,1.1,0.58,1.67,1.69,1.68c0.96,0.01,1.93,0.01,2.89,0c0.96-0.02,1.55-0.56,1.63-1.51
		c0.04-0.5,0.02-1.01,0.02-1.52c0-1.06,0-2.11,0-3.23c1.62,0,3.11,0.01,4.6,0c0.94-0.01,1.55-0.5,1.61-1.43
		c0.07-1.09,0.07-2.19,0.01-3.28c-0.05-0.95-0.67-1.48-1.64-1.51C62.11,48.98,61.04,49,59.97,49c-0.44,0-0.88,0-1.36,0
		c0-1.55,0.01-2.97,0-4.38c-0.01-1.28-0.6-1.87-1.86-1.89c-0.8-0.01-1.6,0-2.41,0c-1.41,0.01-1.95,0.54-1.95,1.93
		c0,1.41,0,2.82,0,4.29c-0.34,0.02-0.6,0.04-0.86,0.04c-1.18,0.01-2.35-0.01-3.53,0.01c-1.31,0.02-1.86,0.58-1.87,1.86
		c-0.01,0.86-0.01,1.71,0,2.57c0.01,1.26,0.55,1.81,1.81,1.81C49.37,55.24,50.81,55.24,52.38,55.24z M78.41,52.1
		c-0.02,5.73,4.65,10.46,10.35,10.48c5.75,0.02,10.47-4.68,10.48-10.44c0.01-5.69-4.65-10.39-10.32-10.41
		C83.1,41.71,78.43,46.32,78.41,52.1z M28.43,30.73c-0.01,5.79,4.58,10.4,10.36,10.41c5.77,0.01,10.4-4.59,10.41-10.36
		c0.01-5.78-4.58-10.44-10.32-10.47C33.09,20.28,28.43,24.92,28.43,30.73z M112.29,30.77c0.01,2.32,1.88,4.14,4.22,4.12
		c2.24-0.02,4.13-1.95,4.09-4.19c-0.03-2.26-1.91-4.12-4.17-4.13C114.13,26.56,112.28,28.44,112.29,30.77z M103.44,39.58
		c-0.01,2.32,1.87,4.22,4.15,4.2c2.26-0.02,4.11-1.88,4.12-4.15c0.01-2.34-1.81-4.17-4.15-4.17
		C105.27,35.46,103.45,37.29,103.44,39.58z M107.55,26.01c2.33,0.01,4.17-1.84,4.17-4.17c-0.01-2.28-1.85-4.15-4.12-4.16
		c-2.29-0.02-4.17,1.88-4.16,4.19C103.44,24.17,105.27,26.01,107.55,26.01z M94.58,30.76c0.01,2.3,1.82,4.11,4.12,4.12
		c2.32,0.01,4.16-1.84,4.15-4.18c-0.01-2.28-1.86-4.14-4.12-4.14C96.43,26.56,94.58,28.44,94.58,30.76z"/>
	<path class="st1" d="M25.52,13.19c0.51-2.03,1.15-3.68,3.16-4.63c4.92-2.32,10.06-3.85,15.42-4.7c0.45-0.07,0.91-0.07,1.35-0.18
		c1.8-0.45,3.37,0.12,4.87,1.05c0.91,0.56,1.87,1.05,2.72,1.68c0.91,0.68,1.86,0.87,2.97,0.87c11.08-0.03,22.15-0.01,33.23-0.03
		c0.42,0,0.88-0.17,1.25-0.38c1.11-0.64,2.19-1.33,3.27-2.02c1.63-1.04,3.33-1.48,5.32-1.17c5.79,0.89,11.4,2.35,16.65,5
		c1.87,0.95,2.69,2.21,2.96,4.46c-2.26-0.77-4.48-1.55-6.72-2.29c-3.6-1.18-7.22-2.28-10.99-2.85c-2.5-0.38-4.45,0.45-6.06,2.3
		c-2.18,2.5-4.35,5.01-6.53,7.51c-1,1.15-2.02,2.29-3.03,3.43c-0.57,0.64-1.29,0.9-2.14,0.89c-7.38-0.01-14.77-0.01-22.15,0
		c-0.93,0-1.66-0.34-2.25-1.02c-2.3-2.64-4.6-5.28-6.9-7.92c-0.77-0.89-1.58-1.75-2.32-2.66c-1.86-2.29-4.21-2.98-7.08-2.43
		c-5.43,1.04-10.61,2.87-15.8,4.68C26.36,12.89,26.01,13.02,25.52,13.19z M77.33,14.58c0.01-2.89-2.29-5.23-5.15-5.25
		c-2.85-0.02-5.19,2.31-5.21,5.19c-0.02,2.88,2.28,5.22,5.15,5.23C75.01,19.76,77.32,17.47,77.33,14.58z"/>
	<path class="st1" d="M88.83,59.46c-4.07-0.03-7.32-3.33-7.28-7.39c0.04-4.06,3.35-7.31,7.41-7.27c4.02,0.03,7.3,3.4,7.26,7.44
		C96.17,56.25,92.85,59.49,88.83,59.46z M88.87,57.34c2.87,0,5.22-2.32,5.23-5.17c0.02-2.86-2.4-5.27-5.26-5.25
		c-2.85,0.02-5.17,2.38-5.16,5.24C83.69,55.04,85.99,57.34,88.87,57.34z"/>
	<path class="st1" d="M46,30.72c0,4.08-3.26,7.32-7.34,7.32c-4.04,0-7.32-3.31-7.3-7.37c0.02-4.05,3.31-7.29,7.4-7.26
		C42.8,23.43,46.01,26.67,46,30.72z M38.74,25.51c-2.87-0.01-5.23,2.28-5.27,5.14c-0.04,2.86,2.35,5.28,5.22,5.29
		c2.85,0,5.2-2.34,5.21-5.2C43.9,27.85,41.61,25.53,38.74,25.51z"/>
</g>
</svg>
